<svg xmlns="http://www.w3.org/2000/svg" width="78" height="78" viewBox="0 0 78 78">
  <g id="Group_140" data-name="Group 140" transform="translate(-83 -2626)">
    <circle id="Ellipse_125" data-name="Ellipse 125" cx="39" cy="39" r="39" transform="translate(83 2626)" fill="#0a8fc9"/>
    <g id="Group_119" data-name="Group 119" transform="translate(100.252 2643.072)">
      <path id="Path_171" data-name="Path 171" d="M2317.816,387.256l-2.8,2.8-.95-.951a.758.758,0,0,0-1.072,1.072l1.055,1.054a1.368,1.368,0,0,0,1.935,0l2.907-2.907a.757.757,0,1,0-1.071-1.071Z" transform="translate(-2308.311 -377.976)" fill="#fff" stroke="#fff" stroke-width="2"/>
      <path id="Path_172" data-name="Path 172" d="M2319.19,389.654h15.651a.757.757,0,0,0,0-1.515H2319.19a.757.757,0,1,0,0,1.515Z" transform="translate(-2306.068 -377.539)" fill="#fff" stroke="#fff" stroke-width="2"/>
      <path id="Path_173" data-name="Path 173" d="M2317.816,393.61l-2.8,2.8-.95-.951a.758.758,0,0,0-1.072,1.072l1.055,1.054a1.368,1.368,0,0,0,1.935,0l2.907-2.907a.758.758,0,0,0-1.071-1.072Z" transform="translate(-2308.311 -375.46)" fill="#fff" stroke="#fff" stroke-width="2"/>
      <path id="Path_174" data-name="Path 174" d="M2317.816,399.965l-2.8,2.8-.95-.951a.758.758,0,1,0-1.072,1.071l1.055,1.055a1.368,1.368,0,0,0,1.935,0l2.907-2.907a.758.758,0,1,0-1.071-1.072Z" transform="translate(-2308.311 -372.943)" fill="#fff" stroke="#fff" stroke-width="2"/>
      <path id="Path_175" data-name="Path 175" d="M2343.564,394.407v-9.166a4.7,4.7,0,0,0-4.7-4.695h-24.6a4.7,4.7,0,0,0-4.695,4.695v31.067a4.7,4.7,0,0,0,4.695,4.7H2330.1a16.345,16.345,0,1,0,13.469-26.6ZM2329,419.488h-14.728a3.184,3.184,0,0,1-3.18-3.18V385.241a3.184,3.184,0,0,1,3.18-3.18h24.6a3.184,3.184,0,0,1,3.18,3.18v9.165l-.042,0c-.121.006-.242.017-.362.025-.153.011-.3.02-.455.035-.125.013-.249.029-.373.045-.145.018-.291.034-.433.056s-.253.042-.378.064-.278.046-.417.074-.251.056-.378.084-.268.059-.4.092-.251.068-.377.1-.26.071-.388.11-.25.081-.374.122-.251.082-.376.128-.247.092-.37.14-.243.094-.364.144-.242.1-.364.158-.236.1-.353.159-.238.116-.355.176-.229.114-.342.174-.232.127-.347.193-.222.126-.331.19-.226.138-.338.208-.215.135-.319.205-.22.148-.329.223-.206.145-.309.221-.212.158-.317.237-.2.155-.3.235-.205.168-.306.253-.191.163-.286.247-.2.176-.292.265-.185.175-.275.262-.187.184-.279.278-.176.183-.261.275-.178.193-.266.29c-.041.046-.084.091-.125.138H2322.7a.757.757,0,1,0,0,1.515h6.6c-.042.061-.083.123-.123.186-.073.107-.141.216-.209.327s-.138.219-.206.329-.131.226-.2.339-.126.225-.189.338-.122.234-.18.353-.115.228-.171.345-.11.243-.165.364-.1.233-.154.35-.1.251-.149.378-.094.236-.137.355-.089.261-.133.392-.081.237-.117.357-.078.271-.115.406c-.034.12-.069.239-.1.359-.036.141-.067.282-.1.424-.027.119-.056.236-.081.356-.029.147-.052.3-.079.445-.02.116-.043.23-.06.348-.024.158-.042.318-.061.477,0,.042-.011.084-.016.126H2322.7a.758.758,0,1,0,0,1.516h3.767c0,.11-.008.221-.008.332,0,.255.007.508.019.761,0,.057.006.113.009.17A16.126,16.126,0,0,0,2329,419.488Zm13.809,6.083a14.824,14.824,0,0,1-11.882-5.962l0,0c-.142-.19-.279-.382-.412-.578h0a14.766,14.766,0,0,1-2.363-6.018l-.006-.042c-.031-.209-.058-.422-.081-.635,0-.052-.01-.1-.016-.155-.018-.183-.031-.366-.042-.55,0-.06-.008-.12-.011-.18-.011-.235-.018-.47-.018-.708a14.834,14.834,0,1,1,14.833,14.834Z" transform="translate(-2309.575 -380.546)" fill="#fff" stroke="#fff" stroke-width="2"/>
      <path id="Path_176" data-name="Path 176" d="M2346.752,397.606a.756.756,0,0,0-1.071,0l-11.847,11.847a1.734,1.734,0,0,1-2.45,0l-4.3-4.3a.758.758,0,1,0-1.073,1.072l4.3,4.3a3.248,3.248,0,0,0,4.592,0l11.846-11.847A.758.758,0,0,0,2346.752,397.606Z" transform="translate(-2303.152 -373.878)" fill="#fff" stroke="#fff" stroke-width="2"/>
    </g>
  </g>
</svg>
